<svg width="29" height="29" viewBox="0 0 29 29" fill="none" xmlns="http://www.w3.org/2000/svg">
<path d="M2.71875 3.625C1.21777 3.625 0 4.84277 0 6.34375C0 7.19902 0.402148 8.00332 1.0875 8.51875L13.4125 17.7625C14.0582 18.2439 14.9418 18.2439 15.5875 17.7625L27.9125 8.51875C28.5979 8.00332 29 7.19902 29 6.34375C29 4.84277 27.7822 3.625 26.2812 3.625H2.71875ZM0 9.96875V21.75C0 23.7494 1.62559 25.375 3.625 25.375H25.375C27.3744 25.375 29 23.7494 29 21.75V9.96875L16.675 19.2125C15.3836 20.1811 13.6164 20.1811 12.325 19.2125L0 9.96875Z" fill="black"/>
</svg>
