<svg width="31" height="31" viewBox="0 0 31 31" fill="none" xmlns="http://www.w3.org/2000/svg">
<g clip-path="url(#clip0_199_593)">
<path d="M3.875 12.5998L15.5 3.99004L27.125 12.5998V15.4697L17.5283 22.584C16.941 23.0199 16.2326 23.25 15.5 23.25C14.7674 23.25 14.059 23.0139 13.4717 22.584L3.875 15.4697V12.5998ZM15.5 0C14.7674 0 14.059 0.236133 13.4717 0.666016L1.56816 9.48769C0.58125 10.2203 0 11.3707 0 12.5998V27.125C0 29.2623 1.7377 31 3.875 31H27.125C29.2623 31 31 29.2623 31 27.125V12.5998C31 11.3707 30.4188 10.2143 29.4318 9.48769L17.5283 0.666016C16.941 0.236133 16.2326 0 15.5 0Z" fill="black"/>
</g>
<defs>
<clipPath id="clip0_199_593">
<rect width="31" height="31" fill="white"/>
</clipPath>
</defs>
</svg>
